#N canvas -7 0 1364 673 12;
#X obj 133 310 mtof;
#X msg 55 199 61;
#X msg 92 200 62;
#X msg 133 201 63;
#X msg 171 201 64;
#X msg 209 202 65;
#X msg 248 203 66;
#X msg 287 204 67;
#X msg 329 205 68;
#X msg 498 207 72;
#X msg 455 206 71;
#X msg 410 206 70;
#X msg 370 207 69;
#X floatatom 133 341 5 0 0 0 - - - 0;
#X floatatom 15 117 5 0 0 0 - - - 0;
#X msg 15 199 60;
#X obj 15 152 select 113 50 119 51 101 114 53 116 54 121 55 117 105
;
#X obj 18 47 key;
#X obj 131 429 outlet;
#X obj 732 194 notein;
#X floatatom 724 252 5 0 0 0 - - - 0;
#X obj 34 83 spigot;
#X obj 82 46 tgl 30 0 empty encender empty 17 7 0 10 #ff8300 #000000
#000000 0 1;
#X connect 0 0 13 0;
#X connect 1 0 0 0;
#X connect 2 0 0 0;
#X connect 3 0 0 0;
#X connect 4 0 0 0;
#X connect 5 0 0 0;
#X connect 6 0 0 0;
#X connect 7 0 0 0;
#X connect 8 0 0 0;
#X connect 9 0 0 0;
#X connect 10 0 0 0;
#X connect 11 0 0 0;
#X connect 12 0 0 0;
#X connect 13 0 18 0;
#X connect 14 0 16 0;
#X connect 15 0 0 0;
#X connect 16 0 15 0;
#X connect 16 1 1 0;
#X connect 16 2 2 0;
#X connect 16 3 3 0;
#X connect 16 4 4 0;
#X connect 16 5 5 0;
#X connect 16 6 6 0;
#X connect 16 7 7 0;
#X connect 16 8 8 0;
#X connect 16 9 12 0;
#X connect 16 10 11 0;
#X connect 16 11 10 0;
#X connect 16 12 9 0;
#X connect 17 0 21 0;
#X connect 19 0 20 0;
#X connect 20 0 0 0;
#X connect 21 0 14 0;
#X connect 22 0 21 1;
