#N canvas 267 52 359 539 12;
#X obj 75 197 phasor~;
#X obj 210 197 phasor~;
#X obj 217 124 bng 15 250 50 0 empty empty empty 17 7 0 10 -262144
-1 -1;
#X msg 121 157 0;
#X msg 276 161 0;
#X obj 211 166 *~ -1;
#X obj 75 243 -~ 0.5;
#X obj 210 242 -~ 0.5;
#X obj 76 281 *~ 2;
#X obj 210 281 *~ 2;
#X obj 75 323 clip~ 0 1;
#X obj 209 322 clip~ 0 1;
#X obj 76 366 +~;
#X obj 76 403 -~ 0.5;
#X obj 77 440 *~ 2;
#X text 39 30 ONDA TRIANGULAR;
#X floatatom 75 100 5 60 2000 0 - - -;
#X obj 75 73 inlet;
#X obj 77 490 outlet~;
#X connect 0 0 6 0;
#X connect 1 0 7 0;
#X connect 2 0 3 0;
#X connect 2 0 4 0;
#X connect 3 0 0 1;
#X connect 4 0 1 1;
#X connect 5 0 1 0;
#X connect 6 0 8 0;
#X connect 7 0 9 0;
#X connect 8 0 10 0;
#X connect 9 0 11 0;
#X connect 10 0 12 0;
#X connect 11 0 12 1;
#X connect 12 0 13 0;
#X connect 13 0 14 0;
#X connect 14 0 18 0;
#X connect 16 0 2 0;
#X connect 16 0 5 0;
#X connect 16 0 0 0;
#X connect 17 0 16 0;
